<svg width="163" height="59" viewBox="0 0 163 59" fill="none" xmlns="http://www.w3.org/2000/svg">
<rect y="0.342041" width="58.658" height="58.658" rx="11.7316" fill="#975E5E"/>
<rect y="0.342041" width="58.658" height="58.658" rx="11.7316" fill="#4141F2"/>
<path fill-rule="evenodd" clip-rule="evenodd" d="M29.3287 38.8363C34.3906 38.8363 38.494 34.7329 38.494 29.671C38.494 24.6091 34.3906 20.5057 29.3287 20.5057C24.2669 20.5057 20.1634 24.6091 20.1634 29.671C20.1634 34.7329 24.2669 38.8363 29.3287 38.8363ZM29.3287 49.8347C40.4648 49.8347 49.4924 40.8071 49.4924 29.671C49.4924 18.5349 40.4648 9.50732 29.3287 9.50732C18.1926 9.50732 9.16504 18.5349 9.16504 29.671C9.16504 40.8071 18.1926 49.8347 29.3287 49.8347Z" fill="white"/>
<path d="M154.846 41.1018C153.2 41.1018 151.783 40.7685 150.596 40.1019C149.416 39.4284 148.506 38.4771 147.867 37.2482C147.229 36.0122 146.909 34.5506 146.909 32.8634C146.909 31.2178 147.229 29.7736 147.867 28.5307C148.506 27.2878 149.405 26.3192 150.565 25.6249C151.731 24.9305 153.099 24.5834 154.668 24.5834C155.724 24.5834 156.706 24.7535 157.616 25.0937C158.532 25.427 159.331 25.9304 160.011 26.6039C160.699 27.2774 161.233 28.1245 161.615 29.1452C161.997 30.1589 162.188 31.3463 162.188 32.7072V33.9257H148.68V31.1761H158.012C158.012 30.5374 157.873 29.9715 157.595 29.4785C157.317 28.9855 156.932 28.6001 156.439 28.3224C155.953 28.0377 155.387 27.8954 154.741 27.8954C154.068 27.8954 153.471 28.0516 152.95 28.3641C152.436 28.6696 152.033 29.0827 151.742 29.6035C151.45 30.1173 151.301 30.6901 151.294 31.322V33.9362C151.294 34.7277 151.44 35.4116 151.731 35.9879C152.03 36.5642 152.45 37.0086 152.992 37.3211C153.533 37.6335 154.175 37.7897 154.918 37.7897C155.411 37.7897 155.863 37.7203 156.272 37.5814C156.682 37.4426 157.033 37.2343 157.324 36.9565C157.616 36.6788 157.838 36.3386 157.991 35.9359L162.094 36.2066C161.886 37.1926 161.459 38.0536 160.813 38.7896C160.175 39.5187 159.348 40.088 158.335 40.4977C157.328 40.9004 156.165 41.1018 154.846 41.1018Z" fill="white"/>
<path d="M144.837 24.7919V28.1247H135.203V24.7919H144.837ZM137.39 20.9591H141.827V35.8736C141.827 36.2832 141.89 36.6026 142.015 36.8318C142.14 37.0539 142.313 37.2102 142.535 37.3004C142.765 37.3907 143.028 37.4358 143.327 37.4358C143.535 37.4358 143.744 37.4185 143.952 37.3838C144.16 37.3421 144.32 37.3108 144.431 37.29L145.129 40.5916C144.907 40.661 144.594 40.7409 144.191 40.8312C143.789 40.9284 143.299 40.9874 142.723 41.0082C141.654 41.0499 140.716 40.9075 139.911 40.5812C139.112 40.2549 138.491 39.748 138.046 39.0606C137.602 38.3732 137.383 37.5053 137.39 36.4568V20.9591Z" fill="white"/>
<path d="M128.337 40.7896V24.792H132.773V40.7896H128.337ZM130.565 22.7298C129.906 22.7298 129.34 22.511 128.868 22.0736C128.403 21.6292 128.17 21.0981 128.17 20.4801C128.17 19.8691 128.403 19.3448 128.868 18.9074C129.34 18.463 129.906 18.2408 130.565 18.2408C131.225 18.2408 131.787 18.463 132.253 18.9074C132.725 19.3448 132.961 19.8691 132.961 20.4801C132.961 21.0981 132.725 21.6292 132.253 22.0736C131.787 22.511 131.225 22.7298 130.565 22.7298Z" fill="white"/>
<path d="M125.178 29.3535L121.116 29.6035C121.047 29.2563 120.897 28.9438 120.668 28.6661C120.439 28.3814 120.137 28.1558 119.762 27.9891C119.394 27.8155 118.953 27.7287 118.439 27.7287C117.752 27.7287 117.172 27.8746 116.7 28.1662C116.228 28.4509 115.992 28.8327 115.992 29.3118C115.992 29.6937 116.145 30.0166 116.45 30.2804C116.756 30.5443 117.28 30.7561 118.023 30.9158L120.918 31.499C122.473 31.8184 123.633 32.3322 124.397 33.0405C125.161 33.7487 125.542 34.6791 125.542 35.8317C125.542 36.8802 125.233 37.8002 124.616 38.5917C124.004 39.3833 123.164 40.0012 122.095 40.4456C121.033 40.883 119.807 41.1018 118.419 41.1018C116.301 41.1018 114.614 40.6608 113.357 39.779C112.107 38.8903 111.374 37.6821 111.159 36.1546L115.523 35.9254C115.655 36.5712 115.974 37.0642 116.481 37.4044C116.988 37.7377 117.637 37.9043 118.429 37.9043C119.207 37.9043 119.832 37.755 120.304 37.4565C120.783 37.151 121.026 36.7586 121.033 36.2796C121.026 35.8768 120.856 35.547 120.522 35.2901C120.189 35.0263 119.675 34.8249 118.981 34.686L116.211 34.134C114.648 33.8216 113.485 33.28 112.721 32.5093C111.965 31.7386 111.586 30.7561 111.586 29.5618C111.586 28.5342 111.864 27.6489 112.419 26.9059C112.982 26.163 113.77 25.5902 114.784 25.1874C115.804 24.7847 116.999 24.5834 118.366 24.5834C120.387 24.5834 121.977 25.0104 123.137 25.8644C124.303 26.7185 124.984 27.8815 125.178 29.3535Z" fill="white"/>
<path d="M98.0599 31.5407V40.7893H93.623V24.7917H97.8516V27.6142H98.0391C98.3932 26.6838 98.9868 25.9478 99.82 25.4062C100.653 24.8576 101.664 24.5834 102.851 24.5834C103.962 24.5834 104.93 24.8264 105.757 25.3124C106.583 25.7985 107.225 26.4928 107.683 27.3955C108.142 28.2912 108.371 29.3604 108.371 30.6033V40.7893H103.934V31.3949C103.941 30.4158 103.691 29.6521 103.184 29.1035C102.677 28.5481 101.979 28.2703 101.091 28.2703C100.494 28.2703 99.9659 28.3988 99.5076 28.6557C99.0563 28.9126 98.7022 29.2875 98.4452 29.7805C98.1953 30.2666 98.0668 30.8533 98.0599 31.5407Z" fill="white"/>
<path d="M90.3659 30.1243C90.3659 32.4504 89.9249 34.4292 89.0431 36.0609C88.1683 37.6926 86.974 38.939 85.4603 39.8C83.9536 40.654 82.2594 41.081 80.3778 41.081C78.4822 41.081 76.7811 40.6505 75.2743 39.7895C73.7676 38.9286 72.5768 37.6822 71.702 36.0505C70.8271 34.4188 70.3896 32.4434 70.3896 30.1243C70.3896 27.7983 70.8271 25.8194 71.702 24.1877C72.5768 22.556 73.7676 21.3131 75.2743 20.4591C76.7811 19.5981 78.4822 19.1676 80.3778 19.1676C82.2594 19.1676 83.9536 19.5981 85.4603 20.4591C86.974 21.3131 88.1683 22.556 89.0431 24.1877C89.9249 25.8194 90.3659 27.7983 90.3659 30.1243ZM85.7936 30.1243C85.7936 28.6176 85.568 27.3469 85.1166 26.3124C84.6723 25.2778 84.0439 24.4932 83.2315 23.9586C82.4191 23.4239 81.4679 23.1566 80.3778 23.1566C79.2876 23.1566 78.3364 23.4239 77.524 23.9586C76.7116 24.4932 76.0798 25.2778 75.6285 26.3124C75.1841 27.3469 74.9619 28.6176 74.9619 30.1243C74.9619 31.631 75.1841 32.9017 75.6285 33.9362C76.0798 34.9708 76.7116 35.7554 77.524 36.2901C78.3364 36.8247 79.2876 37.092 80.3778 37.092C81.4679 37.092 82.4191 36.8247 83.2315 36.2901C84.0439 35.7554 84.6723 34.9708 85.1166 33.9362C85.568 32.9017 85.7936 31.631 85.7936 30.1243Z" fill="white"/>
</svg>
